<svg width="268" height="386" viewBox="0 0 268 386" fill="none" xmlns="http://www.w3.org/2000/svg">
<path fill-rule="evenodd" clip-rule="evenodd" d="M18.1138 379.011C62.2108 385.712 107.107 386.049 151.572 383.616C169.168 382.298 186.819 382.061 204.402 383.745C214.791 384.518 260.345 388.001 264.068 378.693C261.724 329.123 256.98 279.129 242.426 231.455C236.441 214.526 231.3 200.476 219.618 186.468C215.935 182.643 207.995 174.621 203.446 172.004C199.505 169.739 197.858 170.547 195.594 166.719C193.344 162.49 191.686 155.429 188.492 152.446C185.241 149.407 180.422 150.493 174.449 151.473C175.546 136.638 168.702 132.86 159.272 130.04C142.698 123.712 126.329 126.891 122.157 147.076C114.423 147.076 110.077 150.406 105.38 153.606C103.46 154.913 104.796 158.245 102.503 159.273C98.2592 160.784 90.7606 160.415 86.6749 162.275C68.0959 170.733 51.5482 182.999 40.6809 200.912C16.3177 239.159 -0.417927 319.724 2.47799 365.054C1.20913 367.045 2.96384 369.9 3.40975 372.039C3.97276 373.902 5.79585 375.14 7.69834 374.928C10.3533 377.784 14.46 378.42 18.1138 379.011Z" fill="#E5E5CB"/>
<path fill-rule="evenodd" clip-rule="evenodd" d="M200.637 170.883C200.367 170.733 200.606 170.344 200.877 170.472C213.956 176.61 223.987 187.379 231.047 199.82C238.357 212.701 242.523 227.328 246.115 241.624L246.244 242.14C250.074 257.433 253.331 272.884 256.263 288.373C259.232 304.057 261.615 319.84 263.533 335.688C264.482 343.523 265.327 351.372 265.987 359.237C266.316 363.167 266.614 367.101 266.884 371.036C266.991 372.61 267.092 374.185 267.18 375.759L267.242 376.941C267.295 378.013 267.423 379.086 267.158 380.144C266.929 381.056 266.447 381.881 266.023 382.718C265.183 384.371 262.884 384.098 261.98 382.718L261.716 382.315C261.117 381.389 260.618 380.526 260.43 379.372C260.249 378.256 260.241 377.085 260.16 375.957C260.01 373.88 259.882 371.801 259.736 369.724C259.43 365.353 259.086 360.983 258.706 356.617C257.952 347.998 257.145 339.386 256.153 330.791C254.391 315.514 252.178 300.279 249.571 285.125C247.022 270.321 243.803 255.667 240.443 241.031L240.095 239.518C234.212 213.965 225.144 184.538 200.637 170.883ZM61.3423 270.941C61.4385 270.685 61.8523 270.626 61.9222 270.941C62.8032 274.908 62.8903 278.995 63.0249 283.058C63.1575 287.065 63.1521 291.091 63.0938 295.101C62.8784 309.838 62.4741 324.562 62.1243 339.297C61.9496 346.667 61.7855 354.037 61.6596 361.408C61.612 364.174 61.572 366.938 61.5388 369.703L61.4981 373.349C61.4778 374.961 61.4356 376.554 61.2391 378.165C61.1093 379.224 60.8333 380.234 60.2487 381.143C59.8338 381.786 59.2425 382.114 58.6662 382.552L58.5584 382.635C57.8231 383.216 57.0489 383.22 56.3208 382.635L56.1095 382.467C55.414 381.924 54.8128 381.499 54.3688 380.638C53.7512 379.441 53.6523 378.142 53.5473 376.824C53.388 374.825 53.4936 372.796 53.5142 370.791C53.5555 366.77 53.6111 362.749 53.6817 358.727C53.9405 343.981 54.4522 329.233 55.3848 314.512C55.8241 307.58 56.4199 300.624 57.219 293.719L57.3713 292.425C57.6135 290.392 57.8346 288.325 58.0837 286.25C54.3651 283.633 51.0965 280.458 48.3091 276.857C48.1039 276.592 48.4418 276.22 48.6895 276.477C51.5376 279.426 54.8032 281.779 58.4186 283.628C59.011 279.285 59.8255 274.965 61.3423 270.941ZM123.466 139.492C123.517 139.452 123.597 139.436 123.645 139.492C124.445 140.425 124.282 141.85 124.308 143.031L124.311 143.141C124.368 144.868 124.38 146.59 124.373 148.317L124.356 153.82C124.354 154.576 124.292 155.363 124.33 156.124L124.351 156.418C124.771 156.849 124.966 157.47 124.824 158.094C124.798 158.896 124.38 159.563 123.769 159.984L125.078 161.84L126.388 163.697C129.088 167.528 131.817 171.325 134.662 175.049C137.562 178.849 140.657 182.504 143.895 186.017C145.477 187.735 147.086 189.428 148.733 191.085C149.402 191.758 150.088 192.413 150.767 193.077L151.441 193.744C151.839 194.143 152.34 194.538 152.605 195.043C152.76 195.341 152.796 196.076 152.852 196.198C153.352 197.295 152.5 199.046 151.083 198.498L151.147 198.457C151.406 198.276 151.239 198.275 150.652 198.449C150.279 198.447 149.933 198.363 149.607 198.193L149.509 198.139C149.052 197.907 148.643 197.457 148.271 197.096L148.178 197.008C147.328 196.21 146.517 195.364 145.7 194.53C143.999 192.791 142.336 191.015 140.724 189.19C137.511 185.551 134.466 181.764 131.58 177.86C128.642 173.883 125.91 169.702 123.562 165.35C122.67 163.698 121.852 162.014 121.069 160.311C119.544 159.821 119.19 158.199 119.296 156.371C118.734 155.06 118.227 153.722 117.927 152.356C117.887 152.168 118.126 151.992 118.272 152.155C118.759 152.709 119.21 153.301 119.644 153.906C119.906 152.625 120.239 151.444 120.393 150.693L121.069 147.373C117.26 147.175 113.086 148.741 110.459 151.482C110.319 152.197 109.769 152.708 109.234 153.374C108.622 154.138 108.088 154.992 107.691 155.889C106.807 157.873 107.305 160.797 105.593 162.252C105.414 162.404 105.214 162.509 105.01 162.573C105.821 166.561 105.454 170.955 105.435 175V175.355C105.439 179.882 105.288 184.413 105.112 188.936L104.935 193.413C104.704 199.383 104.554 205.357 105.134 211.296C107.783 208.949 110.52 206.71 113.353 204.577C115.215 203.175 117.115 201.821 119.048 200.519L120.62 199.468C122.504 198.204 124.432 196.905 126.495 196.001C129.192 194.817 131.756 195.225 134.36 196.437C136.953 197.647 139.468 199.049 142.011 200.36C144.598 201.69 147.191 203.012 149.781 204.336C151.497 205.213 154.011 206.004 155.27 207.619C155.35 207.263 155.445 206.907 155.553 206.551C155.429 206.01 155.476 205.426 155.78 204.868C160.009 197.094 163.923 189.134 167.809 181.184C169.776 177.16 171.645 173.089 173.616 169.069L175.532 165.152C175.851 164.5 176.173 163.848 176.495 163.198C176.979 162.223 177.483 161.259 177.97 160.286C178.178 159.875 178.436 159.468 178.638 159.052L178.732 158.844C178.737 158.833 179.202 157.373 178.842 157.512L178.812 157.528C178.628 157.632 178.483 157.402 178.601 157.255C179.107 156.627 179.814 157.183 180.103 157.763C180.9 159.36 179.44 161.867 178.877 163.398L178.847 163.482C177.104 168.419 175.129 173.263 173.107 178.09C169.229 187.345 165.064 196.457 160.907 205.586L160.857 205.742C161.744 205.061 162.69 204.445 163.502 203.844C165.545 202.329 167.649 200.89 169.75 199.454C173.604 196.821 177.559 194.36 181.582 191.999L182.387 191.528C184.397 190.357 186.388 189.406 188.773 189.758C190.989 190.085 193.049 191.275 195.05 192.243L195.257 192.343L201.443 195.284C200.781 192.646 200.066 190.021 199.318 187.406C197.861 182.304 196.258 177.246 194.52 172.233C192.897 167.55 191.141 162.917 189.285 158.32L188.727 156.942C187.97 155.05 187.217 152.986 185.054 152.404C182.892 151.821 180.411 152.685 178.436 151.452C178.256 151.34 178.278 151.043 178.496 150.989L179.716 150.682C182.004 150.112 184.688 149.538 186.853 150.092C189.209 150.696 191.157 152.674 192.301 154.73C193.571 157.018 194.467 159.578 195.432 162.016L195.584 162.401C196.691 165.16 197.755 167.937 198.775 170.731C200.812 176.316 202.665 181.969 204.344 187.671C205.152 190.421 205.919 193.181 206.657 195.95C206.868 196.746 207.218 197.712 207.506 198.719C207.835 199.04 208.145 199.398 208.437 199.805C208.921 200.483 208.575 201.277 207.972 201.682C207.948 202.376 207.795 203.028 207.428 203.585C205.991 205.766 202.194 205.205 202.349 202.274C202.371 201.825 202.547 201.396 202.81 201.034L202.804 200.975L202.774 200.868C202.114 200.551 201.452 200.2 200.754 199.855L194.263 196.645C192.382 195.717 190.299 194.281 188.208 193.926C186.259 193.595 184.202 195.049 182.528 195.924L182.419 195.982C178.371 198.057 174.351 200.201 170.349 202.365C168.395 203.421 166.467 204.52 164.519 205.589C162.893 206.482 161.135 207.765 159.306 208.268C158.525 208.877 157.597 208.795 156.85 208.335C157.192 210.447 157.17 212.615 157.275 214.774C157.416 217.661 157.438 220.556 157.485 223.447L157.502 224.531C157.625 230.921 157.691 237.313 157.716 243.706C157.803 266.467 157.55 289.236 157.493 311.996C157.462 323.432 157.235 334.878 156.938 346.31C156.814 351.155 156.55 355.992 156.266 360.828L156.109 363.468C155.778 369.034 155.582 374.661 154.551 380.154C154.417 380.869 153.206 380.887 153.088 380.154C152.139 374.268 152.086 368.256 151.904 362.301L151.866 361.113C151.647 354.721 151.543 348.332 151.565 341.938C151.645 319.166 152.238 296.411 152.722 273.646C152.965 262.208 153.13 250.766 153.507 239.333C153.695 233.612 153.909 227.894 154.163 222.176C154.277 219.623 154.387 217.071 154.556 214.521L154.633 213.428C154.686 212.716 154.727 212.013 154.778 211.315C152.476 212.157 150.37 210.597 148.298 209.532C145.91 208.303 143.524 207.073 141.134 205.846L138.744 204.622L133.959 202.179C131.806 201.08 130.146 199.986 127.848 201.275C119.571 205.921 111.964 212.102 105.072 218.589C103.751 219.833 100.957 219.498 100.622 217.413C99.1919 208.508 100.062 199.473 100.792 190.539L101.061 187.222C101.387 183.261 101.743 179.301 102.215 175.355C102.428 173.591 102.639 171.827 102.872 170.065L103.051 168.745C103.343 166.657 103.533 164.582 104.155 162.58C103.958 162.516 103.77 162.412 103.602 162.252C101.732 160.477 102.634 157.399 103.487 155.29C104.329 153.206 105.614 151.388 107.221 149.822C107.572 149.482 108.066 149.262 108.563 149.251C112.463 146.665 116.741 145.376 121.192 146.787C121.319 146.188 121.446 145.592 121.581 144.996L121.716 144.4C122.063 142.922 122.191 140.481 123.466 139.492ZM163.431 372.892C164.642 372.56 165.967 372.911 166.853 373.798C167.74 374.685 168.092 376.009 167.758 377.22C167.59 377.816 167.29 378.334 166.853 378.773C166.446 379.178 165.971 379.467 165.428 379.639L165.302 379.678L165.104 379.761C164.497 379.924 163.89 379.924 163.284 379.761C162.704 379.598 162.201 379.304 161.774 378.88C161.349 378.452 161.055 377.949 160.894 377.369C160.731 376.762 160.731 376.155 160.894 375.548L160.976 375.35C161.143 374.754 161.444 374.236 161.88 373.798C162.319 373.362 162.837 373.06 163.431 372.892ZM235.283 252.266C235.481 252.037 235.804 252.33 235.681 252.573C233.795 256.27 231.694 259.939 229.63 263.542C229.795 264.541 229.959 265.531 230.148 266.496C230.953 270.61 231.937 274.651 232.579 278.805C234.888 293.736 236.088 308.829 237.115 323.895C238.147 339.014 238.28 354.141 238.435 369.29C238.448 370.603 237.438 372.129 236.085 372.376C235.466 372.49 235.003 372.467 234.385 372.376C232.977 372.169 232.095 370.555 232.036 369.29C231.632 360.824 231.089 352.367 230.459 343.914C229.344 328.926 228.664 313.9 227.763 298.898L227.445 293.655C227.104 287.974 226.793 282.288 226.692 276.598C226.623 272.828 226.825 269.059 226.702 265.293C226.587 261.818 226.235 258.038 227 254.622C227.029 254.495 227.232 254.463 227.29 254.584C228.087 256.262 228.592 258.086 228.98 259.946C231.033 257.35 233.123 254.745 235.283 252.266ZM100.81 160.439C101.099 160.418 101.087 160.851 100.81 160.883C96.7815 161.351 92.8896 162.99 89.0856 164.385L88.7597 164.503C84.9165 165.898 81.1695 167.52 77.5638 169.454C70.5136 173.235 64.0398 178.109 58.3158 183.69C35.4631 205.966 25.0486 238.09 17.4172 268.278C13.1772 285.05 10.1619 302.105 8.20768 319.292C7.24125 327.792 6.55809 336.324 6.1598 344.869C5.95594 349.249 5.82733 353.633 5.77365 358.017C5.74601 360.261 5.73801 362.508 5.74057 364.752C5.74201 365.783 5.92558 367.078 5.65047 368.077C5.39532 369.002 4.67573 369.818 4.14339 370.588C3.51264 371.504 2.37878 371.456 1.73924 370.588L1.50326 370.274C0.821222 369.368 0.153719 368.502 0.0562622 367.32C-0.0480649 366.051 0.0255908 364.744 0.0207978 363.469C0.00993372 360.903 0.0417277 358.336 0.0930125 355.77C0.191908 350.853 0.385703 345.935 0.673601 341.024C1.25818 331.058 2.22045 321.112 3.59828 311.224C6.04749 293.648 9.71843 276.242 14.5271 259.161C19.0634 243.047 24.4376 226.983 32.0936 212.058C39.2021 198.2 48.5275 185.308 60.8325 175.623C66.5548 171.119 72.7839 167.365 79.4998 164.538C82.887 163.113 86.4439 161.949 90.0613 161.286C93.6385 160.629 97.2001 160.722 100.81 160.439ZM164.126 344.412C164.765 344.408 165.478 344.548 166.026 344.901L166.758 345.469C166.956 345.723 167.154 345.978 167.35 346.235C167.809 346.833 167.87 347.798 167.774 348.51C167.751 348.985 167.611 349.426 167.35 349.837L166.793 350.559C166.257 350.996 165.81 351.308 165.161 351.517C164.821 351.627 164.495 351.651 164.169 351.634L164.061 351.627L164.126 351.635L164.011 351.623C163.906 351.613 163.799 351.602 163.693 351.588C163.62 351.58 163.546 351.573 163.474 351.564C163.404 351.557 163.337 351.556 163.267 351.562C162.442 351.639 161.611 351.171 161.027 350.634C160.5 350.148 160.025 349.121 160.099 348.392L160.13 348.089C160.186 347.576 160.231 347.373 160.448 346.857C160.661 346.355 160.956 345.913 161.357 345.539C162.128 344.823 163.07 344.419 164.126 344.412ZM161.572 306.836C162.668 305.642 164.546 305.554 165.904 306.276C166.235 306.452 166.54 306.735 166.831 306.971C167.566 307.566 167.855 308.638 167.895 309.54C167.935 310.433 167.464 311.494 166.831 312.111L166.678 312.26C166.299 312.627 165.757 312.948 165.229 313.046C164.374 313.202 163.658 313.197 162.862 312.862C162.18 312.573 161.591 312.109 161.191 311.482L161.126 311.374C161.099 311.331 161.071 311.287 161.048 311.24L161.012 311.17C160.252 309.707 160.456 308.05 161.572 306.836ZM162.139 269.06C162.632 268.906 163.126 268.885 163.62 268.995C163.955 268.995 164.268 269.08 164.558 269.249C164.872 269.337 165.146 269.495 165.377 269.727C165.655 269.891 165.879 270.113 166.043 270.393C166.372 270.751 166.593 271.173 166.708 271.657L166.841 272.644L166.708 273.631L166.334 274.52C166.23 274.654 166.126 274.788 166.023 274.922C165.856 275.202 165.634 275.426 165.355 275.59C165.173 275.772 164.963 275.906 164.73 276.001C163.904 276.593 162.802 276.787 161.822 276.517C161.241 276.354 160.734 276.06 160.306 275.633C159.881 275.205 159.586 274.7 159.424 274.117L159.357 273.654C159.269 273.029 159.257 272.684 159.432 271.892C159.511 271.543 159.734 271.053 159.852 270.845C160.354 269.962 161.175 269.356 162.139 269.06ZM205.017 241.886C206.435 241.875 207.853 241.878 209.27 241.894L210.334 241.908C212.113 241.935 213.639 241.752 215.039 242.988C216.055 243.885 215.608 245.39 214.643 246.065C213.182 247.088 211.348 246.573 209.669 246.462C207.897 246.342 206.125 246.243 204.352 246.164C200.919 246.009 197.484 245.912 194.046 245.898C190.617 245.883 187.182 245.915 183.752 245.97C180.263 246.027 176.629 246.353 173.159 245.99C172.683 245.941 172.576 245.314 173.046 245.152C176.316 244.019 179.994 243.653 183.421 243.22C186.955 242.774 190.489 242.458 194.046 242.252C197.699 242.042 201.358 241.911 205.017 241.886ZM162.132 230.771L162.249 230.774C162.874 230.776 163.458 230.921 164.002 231.214L164.118 231.279L164.868 231.857C165.326 232.321 165.644 232.866 165.82 233.492L165.952 234.478C165.971 234.987 165.864 235.462 165.633 235.904C165.484 236.363 165.229 236.761 164.868 237.096C164.532 237.457 164.136 237.713 163.676 237.861C163.268 238.076 162.832 238.183 162.367 238.183L162.249 238.181C161.581 238.178 160.958 238.01 160.381 237.674L159.632 237.096C159.173 236.634 158.856 236.09 158.68 235.462L158.547 234.478C158.528 233.966 158.633 233.49 158.867 233.049C159.015 232.591 159.271 232.193 159.632 231.857C159.967 231.496 160.364 231.241 160.824 231.092C161.231 230.878 161.667 230.771 162.132 230.771ZM173.108 143.764C173.907 142.609 175.351 143.636 175.145 144.566C175.2 147.175 175.334 149.709 175.927 152.265C176.198 153.435 176.554 154.607 177.104 155.679L177.334 156.13C178.045 157.536 178.598 158.86 177.639 160.402C177.189 161.129 176.374 161.674 175.489 161.636C171.568 161.466 171.03 156.009 170.792 152.96C170.546 149.822 171.311 146.373 173.108 143.764Z" fill="#1A120B"/>
<path fill-rule="evenodd" clip-rule="evenodd" d="M150.473 2.60254C165.585 2.60254 183.715 9.93148 185.257 10.078L185.298 10.0802C186.11 10.0802 189.28 12.4956 194.806 17.3264L188.82 29.0077L189.304 29.4704C191.624 31.694 193.601 33.7208 195.164 35.3186C207.92 48.364 210.212 99.5841 207.207 117.446C204.2 135.309 198.632 152.788 172.71 152.788C146.788 152.788 117.949 137.195 113.508 132.339C110.546 129.102 107.219 127.551 103.527 127.687C103.375 127.495 103.225 127.303 103.075 127.113L102.532 127.037C97.4232 126.297 93.7621 125.3 91.5499 124.047C87.2283 121.601 82.4785 108.743 82.4785 105.911C82.4785 103.107 75.3859 82.708 75.2441 80.5494L75.2419 80.4897C75.2419 78.6851 65.9763 70.3894 65.9763 67.7549C65.9763 65.1203 64.1086 65.2803 65.9763 55.9966L66.5189 53.2694C68.5063 43.385 72.3963 27.018 87.2284 19.906C103.527 12.0906 135.209 2.60254 150.473 2.60254Z" fill="#E5E5CB"/>
<path fill-rule="evenodd" clip-rule="evenodd" d="M84.7128 19.5385C92.8416 10.9071 138.99 -2.4434 162.337 0.386528L163.038 0.47727C164.901 0.713724 166.737 1.0716 168.55 1.55777C174.407 2.92632 180.457 4.99865 185.297 8.45997C189.339 11.2917 202.085 15.9161 198.327 23.3238C199.72 25.9639 200.24 29.2259 199.299 31.8262C199.18 32.7244 198.904 33.5517 198.549 34.4093C201.526 38.8027 203.882 43.7711 205.79 48.4966C209.123 60.3896 211.196 72.7664 211.5 84.8999C212.511 107.954 209.984 135.49 189.914 150.398C177.789 159.844 158.796 160.161 145.172 148.448C144.398 147.533 140.762 145.063 141.976 144.63C142.337 145.012 142.708 145.382 143.087 145.748C143.069 145.707 143.066 145.667 143.072 145.622L142.718 145.301C142.048 144.681 141.181 143.782 142.168 143.957C142.211 144.009 142.259 144.053 142.305 144.103C142.515 144.229 142.673 144.338 142.796 144.433L142.86 144.485L142.841 144.464C142.272 143.857 141.93 143.238 142.781 143.633L142.893 143.687C143.272 144.087 143.657 144.469 144.048 144.839C144.042 144.796 144.048 144.751 144.072 144.705L143.707 144.352C143.35 144.002 143.405 144.001 143.579 143.718C142.821 142.657 144.235 143.288 144.334 143.702C145.22 143.492 145.996 145.154 146.566 145.355C171.543 164.566 207.79 147.52 207.202 93.9922L207.194 92.9458C207.022 75.8291 205.582 58.2369 198.506 42.7429C197.818 41.2505 197.048 39.7985 196.201 38.3937C195.616 37.3402 194.991 36.3137 194.32 35.3142C192.44 35.1623 190.583 34.8178 188.754 34.2844C188.126 34.1257 187.505 33.9501 186.885 33.744C177.812 34.2392 168.942 34.7777 159.843 35.2882L157.001 35.4654C149.294 35.961 141.323 36.755 135.103 41.524C129 45.8656 128.973 54.4272 123.749 59.1939C116.3 64.2518 116.246 68.8126 114.811 76.2664C114.917 81.8852 118.812 90.0492 111.665 92.4137C112.87 94.1328 111.189 93.3068 111.058 92.7045C111.044 92.7077 111.031 92.7109 111.02 92.7109C112.095 94.708 110.515 93.4506 110.376 92.8084C110.291 92.7844 110.207 92.7237 110.122 92.639C111.205 94.39 109.456 93.1646 109.56 92.8451C107.467 89.629 103.163 89.1305 100.128 89.9821C100.091 90.0971 99.9562 90.1067 99.8717 90.046C86.9689 92.8435 90.2979 119.566 103.521 116.983C104.086 116.866 104.073 117.139 104.185 117.165C103.88 116.363 104.741 116.689 104.732 116.856L104.784 116.855C104.826 116.852 104.808 116.847 104.84 116.856C104.545 115.217 106.206 117.593 106.075 117.692C106.126 117.662 106.184 117.644 106.235 117.638L106.178 117.481C105.901 116.746 105.925 117.051 105.927 116.631C105.719 116.11 105.705 116.339 105.753 115.998C106.481 115.434 106.697 117.147 106.94 117.272C106.523 116.692 106.853 116.217 107.246 116.532C110.224 122.8 114.072 128.687 119.043 133.325C119.587 133.753 120.138 134.177 120.707 134.574C122.822 136.416 126.065 137.602 128.045 139.235C128.045 139.262 128.032 139.295 128.013 139.329L128.057 139.369L128.104 139.414L128.792 139.744C128.994 139.917 129.176 140.109 129.339 140.321C129.511 140.521 129.662 140.74 129.791 140.973C129.855 141.257 129.713 141.376 129.443 141.254C129.324 141.213 129.206 141.166 129.088 141.122C129.096 141.131 129.099 141.139 129.106 141.146C129.144 141.205 129.406 141.812 129.104 141.713L129.069 141.7C128.903 141.638 128.738 141.57 128.575 141.507C128.768 141.746 128.943 142.007 129.099 142.226C129.264 142.398 129.364 142.601 129.406 142.831C129.399 142.959 129.328 143.013 129.2 142.996C129.005 142.932 128.812 142.865 128.62 142.793L128.674 142.898C128.81 143.165 129.003 143.615 128.66 143.465C128.366 143.374 128.083 143.269 127.799 143.154C127.775 143.202 127.728 143.219 127.634 143.175C126.733 142.853 125.862 142.462 125.028 142C124.295 141.467 123.557 140.943 122.82 140.412C122.129 139.997 121.461 139.535 120.823 139.014C116.554 136.257 112.817 132.753 109.852 128.852C104.895 133.146 94.9816 129.043 88.8496 125.68C83.4258 122.675 81.294 117.118 80.7428 111.127C79.5968 103.062 73.0082 100.301 73.4666 82.6041C73.4564 82.6073 73.446 82.6073 73.4324 82.6073C73.1928 82.537 72.9603 82.4427 72.7408 82.3213C72.5147 82.2127 72.3021 82.0849 72.1025 81.9283L71.8562 81.588C71.7282 81.5171 71.6135 81.4428 71.5258 81.3685L71.4802 81.4271C71.3361 81.6011 71.4329 81.3394 71.4414 81.2875L71.0134 80.7051C69.9984 79.3188 68.885 77.7635 67.978 76.5196L67.9494 76.5701C67.9288 76.6083 67.9179 76.6359 67.9277 76.6479C65.7691 73.5454 63.7392 69.7981 63.1751 66.1701C62.5092 63.3756 62.7695 60.496 63.3504 57.9075C65.841 48.8429 73.9999 28.3304 84.7128 19.5385ZM143.291 144.898L143.155 144.777L143.275 144.927C143.337 145.004 143.401 145.073 143.505 145.143C143.497 145.12 143.497 145.097 143.5 145.069C143.432 145.017 143.361 144.959 143.291 144.898ZM162.235 4.94129C146.402 3.57945 130.828 7.06889 115.72 11.2926L114.677 11.5923C106.086 14.0447 97.0025 16.2514 89.7424 21.5004C79.5992 29.2724 74.3614 41.6363 69.7905 53.0517C65.7993 61.5332 67.8396 71.097 73.8545 77.0193C74.4803 71.1342 75.5472 65.4211 77.2145 59.7541C77.5625 58.8688 77.2994 58.5787 78.0493 58.4632C79.1821 73.7352 73.603 85.0182 84.6436 103.118C89.4344 111.659 83.8886 117.908 97.4169 122.402L97.7831 122.541C100.602 123.605 103.679 124.445 106.44 123.851L106.192 123.448C105.941 123.033 105.864 122.832 106.23 122.654C106.221 122.635 106.208 122.614 106.194 122.59C105.896 122.03 105.61 121.462 105.336 120.889C105.225 120.926 105.113 120.953 104.998 120.983C105.074 121.122 105.083 121.259 104.874 121.307C104.131 121.563 103.367 121.665 102.584 121.617L102.417 121.605C101.533 121.55 100.977 121.389 100.479 121.24C100.314 121.213 100.149 121.186 99.9863 121.152C98.3846 120.798 96.6892 119.893 95.5919 118.997C83.0837 111.891 84.3764 87.6974 99.7942 85.4096C100.11 70.1775 107.353 44.4785 119.373 29.9632C130.237 16.6115 159.897 10.8247 180.533 12.8652C180.833 12.9649 181.135 13.0654 181.435 13.1672C184.619 13.4501 187.653 14.869 190.839 15.528C188.551 13.8131 185.957 12.6708 183.284 11.6999C177.957 8.44112 171.852 6.67778 165.954 5.43417C164.732 5.13365 163.494 4.96829 162.235 4.94129ZM99.0882 97.6477C99.9171 97.1971 99.8224 97.6317 100.013 97.5055C105.976 97.0182 112.405 102.241 115.738 106.596C115.476 106.869 114.763 106.058 114.639 105.93C114.621 105.947 114.602 105.96 114.581 105.967L114.674 106.098C116.025 108.037 113.346 105.756 113.095 105.286C113.052 105.308 113.008 105.323 112.958 105.312C113.17 105.521 113.818 106.064 113.929 106.451L114.102 106.593C115.722 107.981 115.588 109.026 113.747 107.055C113.79 107.146 113.808 107.23 113.778 107.298L113.842 107.341C114.746 107.973 115.49 109.736 113.599 107.925C113.795 109.248 111.725 106.692 111.657 106.71C108.074 103.896 102.797 101.159 98.3017 100.79L98.1471 100.773C97.322 100.667 96.932 100.423 97.2217 99.8828C96.2056 99.6415 96.4436 99.1399 96.9245 99.1559C96.208 98.6845 96.853 98.234 97.2688 98.4097C96.983 97.6189 98.1296 98.1461 98.2343 98.0359C98.8293 97.1172 98.9897 97.8825 99.0882 97.6477ZM86.5894 48.5676C89.4534 47.5181 97.913 50.6597 97.2362 54.8205C96.8331 55.7758 95.5053 56.3231 94.572 55.7839L93.3539 54.9654C91.2342 53.5453 89.3222 52.2999 87.0464 51.0612C85.8077 50.4463 85.2744 49.141 86.5894 48.5676ZM102.883 42.3845L101.778 41.6644C95.8089 37.7564 87.3709 31.8348 102.335 37.9614C104.041 38.6931 106.307 39.1261 107.238 40.7509C108.7 43.7457 104.853 43.9468 102.883 42.3845ZM103.554 24.8499C103.075 23.0316 109.036 25.1653 110.771 25.7278L111.034 25.8276C112.722 26.4568 114.656 27.0404 115.666 28.4973C116.848 30.5105 114.455 30.9275 112.972 30.0183C109.932 28.0307 106.599 26.5311 103.554 24.8499ZM118.71 16.3796C115.356 12.7149 124.333 16.2256 125.679 17.2001L125.717 17.2289C126.72 17.9355 126.517 19.4578 125.575 19.9048C122.892 19.9558 120.918 17.7192 118.71 16.3796ZM133.975 12.3643C128.642 8.53011 135.667 10.3538 138.108 11.8564C139.771 13.3237 138.057 15.8004 133.975 12.3643Z" fill="#1A120B"/>
<path fill-rule="evenodd" clip-rule="evenodd" d="M153.019 108.552C158.806 107.849 164.414 109.62 170.071 110.515C173.057 110.986 176.048 111.338 179.069 111.469C179.678 111.494 180.285 111.51 180.894 111.523C180.951 110.988 181.25 110.496 181.9 110.2C183.231 109.598 184.297 109.325 185.757 109.384C187.096 109.437 188.438 109.574 189.754 109.815C192.148 110.253 194.55 111.25 196.3 112.979C200.348 116.981 199.733 123.41 196.603 127.77C190.139 136.777 178.341 137.196 168.235 137.078L167.302 137.067C158.101 136.934 144.938 138.306 140.759 127.835C139.22 123.983 139.434 119.519 141.316 115.826C143.561 111.421 148.287 109.127 153.019 108.552ZM181.76 123.55L181.678 123.554C177.436 123.717 173.195 123.832 168.95 123.907C169.077 124.998 169.207 126.087 169.355 127.177C169.47 128.032 169.595 128.888 169.724 129.741C169.78 130.104 169.982 130.665 169.924 131.024L169.903 131.165C170.122 131.264 170.32 131.422 170.467 131.654C170.518 131.734 170.555 131.813 170.592 131.893C173.888 131.919 177.433 131.855 180.793 131.256L180.799 131.182C180.86 130.754 181.039 130.465 181.277 130.267C181.512 128.898 181.491 127.439 181.582 126.081C181.64 125.236 181.7 124.394 181.76 123.55ZM165.708 123.964C162.65 124.017 159.592 124.057 156.534 124.02L155.147 123.998C155.44 125.571 155.759 127.139 156.024 128.722C156.301 130.372 154.849 131.422 153.591 131.379C153.733 131.403 153.874 131.427 154.015 131.446C157.942 132.002 162.017 131.853 166.002 131.85C165.788 130.598 165.874 129.185 165.842 128.14L165.836 127.979C165.775 126.64 165.732 125.303 165.708 123.964ZM144.938 123.677C145.045 124.495 145.251 125.295 145.56 126.04C146.865 129.188 149.858 130.658 153.024 131.277C152.474 131.087 152.038 130.631 151.928 129.85C151.653 127.909 151.554 125.934 151.548 123.963C149.341 123.942 147.119 123.895 144.938 123.677ZM193.266 123.004C191.695 123.375 189.871 123.205 188.329 123.276C186.885 123.341 185.441 123.397 183.996 123.456C184.065 124.442 184.13 125.428 184.202 126.413C184.297 127.687 184.305 129.034 184.549 130.302C187.455 129.31 190.058 127.719 192.012 125.175C192.499 124.541 192.935 123.796 193.266 123.004ZM152.356 113.717C149.741 114.337 147.266 115.645 145.935 118.038C145.146 119.46 144.799 121.143 144.866 122.803C147.076 122.545 149.324 122.448 151.562 122.366C151.569 121.964 151.578 121.561 151.591 121.159L151.625 120.13C151.685 118.165 151.717 115.699 152.356 113.717ZM165.892 113.956L164.74 113.827C161.543 113.463 158.346 113.081 155.149 113.3C154.686 113.332 154.216 113.383 153.746 113.452C154.31 115.492 154.264 117.888 154.499 119.908C154.591 120.689 154.706 121.462 154.834 122.234L155.389 122.208C158.819 122.023 162.254 121.908 165.687 121.772C165.687 121.127 165.69 120.481 165.701 119.836L165.714 119.19C165.753 117.542 165.646 115.683 165.892 113.956ZM181.948 113.694C178.599 114.236 175.137 114.351 171.848 114.354C170.534 114.356 169.221 114.276 167.909 114.159C167.994 114.859 168.039 115.565 168.103 116.255C168.232 117.649 168.381 119.04 168.542 120.429L168.686 121.644C172.905 121.454 177.126 121.247 181.346 121.032L181.942 121L182.108 118.663C182.221 117.105 182.346 115.548 182.523 113.996L182.391 113.948C182.236 113.885 182.087 113.797 181.948 113.694ZM183.402 114.276C183.587 116.479 183.688 118.692 183.824 120.898L186.605 120.75C187.07 120.724 187.533 120.699 187.997 120.671C189.799 120.568 192.116 120.021 193.897 120.531C194.034 118.911 193.571 117.332 192.109 116.243C189.542 114.33 186.273 115.011 183.402 114.276ZM173.899 94.5784C178.04 92.2043 188.433 89.7791 189.091 97.2369C189.395 100.669 186.845 103.513 183.867 104.781L183.755 104.827C180.961 105.976 176.011 107.273 173.594 104.783C171.582 102.709 174.251 98.9912 176.749 100.691C178.034 101.563 180.739 100.92 182.172 100.504L182.261 100.479C183.809 100.023 185.87 98.5678 185.231 96.6634C184.666 94.9778 182.256 94.6695 180.748 94.6152C178.497 94.5337 176.305 95.0561 174.075 95.2271C173.72 95.2542 173.612 94.7414 173.899 94.5784ZM191.056 82.5864C196.677 82.3228 200.174 88.4642 198.882 93.4952C198.658 94.3643 197.688 95.2159 196.75 95.1184L196.516 95.0961C196.394 95.0849 196.274 95.0705 196.164 95.0401C195.274 94.7925 194.477 93.8675 194.541 92.9073L194.558 92.6277C194.689 90.2504 194.432 87.512 191.608 86.9368C189.214 86.4479 187.877 88.755 187.848 90.8767C187.843 91.2537 187.42 91.5173 187.086 91.3144C185.356 90.2599 185.056 88.1638 185.717 86.3585C186.554 84.0706 188.652 82.6982 191.056 82.5864ZM149.337 83.9029C153.428 82.5385 157.841 84.7193 159.822 88.338C160.517 88.5393 161.212 89.0761 161.115 89.8957C160.976 91.0764 160.766 91.8209 159.947 92.7155C158.667 94.1167 156.271 93.3994 155.739 91.6755L155.716 91.5988C155.112 89.3701 152.66 87.9002 150.426 88.6799C147.817 89.5905 147.894 92.3481 146.063 93.9537C145.849 94.1423 145.59 94.1726 145.333 94.048C143.389 93.1086 143.738 90.2791 144.432 88.6607C145.339 86.5374 147.106 84.6474 149.337 83.9029ZM143.764 71.475C147.079 68.091 155.724 64.8163 157.993 71.0655C158.424 72.2558 157.504 73.8606 156.266 74.1075C154.237 74.5114 152.438 73.6304 150.423 73.7884C148.792 73.917 147.09 74.4623 145.785 75.4733C142.173 78.2732 141.379 83.0098 138.862 86.5726C138.739 86.7467 138.501 86.6732 138.479 86.4687C137.905 81.2805 140.133 75.1812 143.764 71.475ZM187 68.1437C189.2 67.3663 191.692 67.4329 193.903 68.1223C196.131 68.8173 198.175 70.137 199.752 71.861C200.467 72.6437 201.128 73.5075 201.658 74.427C201.941 74.9141 202.237 75.9208 202.558 76.5201C204.29 77.5212 205.031 79.8022 203.48 81.4249L203.409 81.496L203.202 81.7019C202.368 82.5273 201.11 82.8852 199.971 82.556C197.425 81.8179 197.115 79.8111 196.233 77.6803C195.65 76.2729 194.653 75.0277 193.442 74.1129C190.582 71.9519 185.893 71.2633 182.45 72.2818C182.266 72.3361 182.05 72.1024 182.181 71.9329C182.835 71.0874 183.21 70.3935 184.084 69.7115C184.971 69.0192 185.937 68.5192 187 68.1437Z" fill="#1A120B"/>
<path fill-rule="evenodd" clip-rule="evenodd" d="M149.097 129.054C151.829 122.649 157.795 117.943 164.661 116.222C169.704 114.961 174.997 115.001 180.136 115.501C182.83 115.762 185.719 115.974 188.257 116.976C190.425 117.831 192.191 119.446 193.52 121.342C195.1 123.59 196.175 126.163 196.931 128.799C197.038 129.174 197.139 129.551 197.233 129.931C196.904 131.92 196.207 133.614 194.365 134.865C192.568 136.086 190.424 136.586 188.286 136.763C188.077 136.662 187.874 136.558 187.687 136.453C184.356 134.544 182.012 130.035 177.807 130.646C174.054 131.19 171.584 135.915 169.352 138.683C162.19 139.519 155.032 137.365 149.204 133.269C148.907 131.866 148.891 130.451 149.097 129.054ZM202.101 124.196C201.527 122.587 200.805 121.029 199.951 119.561C197.123 114.707 192.78 110.839 187.626 108.628C175.434 103.407 159.659 107.088 149.813 115.653C146.45 118.582 143.048 122.884 142.019 127.513C141.713 127.573 141.422 127.733 141.184 127.958C134.069 123.477 126.744 119.166 121.012 112.956C116.848 108.443 113.953 103.102 112.18 97.2337C112.035 96.7512 111.257 96.8215 111.28 97.3567C111.287 97.4814 111.293 97.606 111.3 97.7306C111.226 97.5005 110.876 97.6188 110.849 97.8424C109.895 104.971 108.702 112.53 109.801 119.697C110.458 123.972 112.399 127.102 114.995 130.483C117.777 134.106 120.924 137.476 124.143 140.708C126.187 142.759 128.32 145.125 130.821 146.63C133.731 148.378 137.03 149.706 140.134 151.054C143.293 152.431 146.499 153.701 149.765 154.804C156.294 157.015 163.043 158.542 169.91 159.212C175.407 159.745 181.691 160.327 186.96 158.258C190.997 156.673 194.256 153.807 196.843 150.359C199.657 146.603 201.882 142.324 203.112 137.814C204.39 133.128 202.369 124.95 202.101 124.196Z" fill="#1A120B"/>
<path fill-rule="evenodd" clip-rule="evenodd" d="M215.04 85.5246C211.821 107.301 189.358 109.71 185.365 88.0921C186.006 87.8109 186.468 87.2581 186.372 86.1861C186.348 81.4747 187.81 76.4955 192.058 73.8756C196.448 71.1722 201.587 70.9042 206.667 70.9724C216.362 70.7413 216.157 78.8477 215.04 85.5246ZM181.851 76.055C178.807 75.9267 174.958 76.0341 172.233 77.8886C171.483 75.87 169.536 73.7148 167.569 72.5622C174.882 72.7763 182.407 72.0564 189.773 71.4975C188.01 72.7001 186.37 74.5066 185.303 76.595C184.314 76.0671 182.897 76.1165 181.851 76.055ZM168.438 87.8349C160.003 116.887 138.944 104.224 136.646 100.501C132.505 94.3389 131.727 79.3625 135.335 75.3581C140.498 71.737 147.808 72.6689 153.908 72.5801C165.114 72.7314 173.073 76.085 168.438 87.8349ZM225.002 74.4725C222.709 74.1726 220.26 74.1122 218.129 75.1218C217.472 72.3317 215.413 69.9991 213.086 68.9726C212.805 68.6193 212.847 68.4295 211.885 68.4826C205.98 66.7071 199.372 67.6465 193.697 69.4672C184.736 70.2223 175.334 70.8176 166.296 71.8579C157.83 68.0544 132.28 67.497 130.694 76.8716C128.695 76.5728 125.295 75.0002 123.616 77.1333C111.306 75.0454 98.5861 77.9471 86.2225 79.2393C83.1104 79.8127 81.5075 85.9912 85.0402 85.9065C87.0263 85.3681 84.979 82.0593 87.6533 81.8101C99.5821 80.5072 111.25 78.6582 123.301 78.4417C122.881 80.5235 131.272 80.6588 131.395 79.4433C131.413 79.4524 131.432 79.4585 131.451 79.4665C129.377 87.1958 131.248 98.3187 134.995 103.112C140.244 109.387 153.424 111.188 159.268 107.151C166.805 103.423 174.647 84.7162 172.445 78.5012C176.443 77.2336 180.395 77.6142 184.543 78.2598C183.594 80.9438 181.954 87.5505 184.313 88.124C183.88 101.242 195.814 109.427 206.816 104.046C216.338 99.5745 219.667 85.4208 218.503 76.8294C219.688 79.1207 229.641 76.6262 225.002 74.4725Z" fill="#1A120B"/>
</svg>
