<svg width="20" height="22" viewBox="0 0 20 22" fill="none" xmlns="http://www.w3.org/2000/svg">
<path fill-rule="evenodd" clip-rule="evenodd" d="M8.0346 0.693665C9.11208 0.430859 9.78893 1.59717 9.31649 2.41468C7.71348 5.1886 7.74202 8.67958 9.5316 11.2756C11.3302 13.8848 14.6048 15.1572 17.7808 14.6298C18.705 14.4764 19.528 15.5107 18.9208 16.4035C18.9028 16.4299 18.8847 16.4562 18.8666 16.4825C17.7928 18.0329 16.2804 19.3985 14.5062 20.1741C12.6151 21.0008 10.5199 21.2428 8.48986 20.8691L8.48888 20.8689C6.12876 20.4318 3.99409 19.1876 2.45081 17.3496C0.907512 15.5116 0.0517395 13.1942 0.030279 10.7947C0.00881849 8.39515 0.823011 6.06304 2.33326 4.19809C3.76497 2.43011 5.84533 1.23435 8.00291 0.701436L8.0346 0.693665Z" fill="#D5CEA3"/>
</svg>
