<svg width="17" height="20" viewBox="0 0 17 20" fill="none" xmlns="http://www.w3.org/2000/svg">
<path d="M15.6713 0.62664C15.5628 0.36483 15.3534 0.16452 15.0959 0.0762699L15.094 0.0756398L15.0922 0.0750099L15.0884 0.0737398L15.0805 0.0711399L15.0636 0.0658298C15.0518 0.0622298 15.039 0.0585597 15.0252 0.0548697C14.9976 0.0474897 14.966 0.0400699 14.9305 0.0331899C14.8593 0.0194099 14.7728 0.00786981 14.6708 0.00278981C14.466 -0.00741019 14.2037 0.00857978 13.8817 0.0805398C13.3447 0.20053 12.6476 0.47464 11.7724 1.03631C11.7152 1.07302 11.6572 1.11096 11.5985 1.15016C11.5397 1.13561 11.4809 1.12155 11.422 1.108C9.8261 0.74083 8.1742 0.74083 6.57825 1.108C6.51933 1.12156 6.46049 1.13561 6.40173 1.15017C6.34298 1.11096 6.28499 1.07302 6.22775 1.03631C5.35163 0.47435 4.65291 0.20029 4.11455 0.0803898C3.79179 0.00851981 3.52891 -0.0073802 3.324 0.0027798C3.22186 0.0078398 3.13536 0.0193098 3.06428 0.0329898C3.0288 0.0398198 2.99732 0.0471699 2.96983 0.0544699C2.95609 0.0581199 2.94336 0.0617598 2.93163 0.0653098L2.91481 0.0705598L2.90698 0.0731099L2.9032 0.0743697L2.90135 0.0749899L2.89952 0.0756098C2.63979 0.16397 2.42877 0.36623 2.32049 0.63061C1.91716 1.6154 1.8101 2.70134 2.00435 3.74306C2.01379 3.79367 2.02394 3.84418 2.0348 3.89458C1.99316 3.95373 1.9527 4.01368 1.91343 4.07439C1.30771 5.01089 0.985533 6.12791 1.00063 7.27493C1.00208 9.7315 1.71965 11.4139 2.9332 12.4965C3.62014 13.1093 4.41743 13.4844 5.21873 13.7208C5.31042 13.7479 5.40217 13.7731 5.49381 13.7967C5.48043 13.8432 5.46796 13.8901 5.45641 13.9373C5.40789 14.1357 5.37572 14.3394 5.36083 14.5461C5.35948 14.5648 5.35863 14.5835 5.35829 14.6022L5.32436 16.421L5.32417 16.4407C5.32417 16.4464 5.32417 16.4521 5.32417 16.4577C5.26262 16.473 5.20005 16.4843 5.13682 16.4916C4.942 16.5141 4.74467 16.4977 4.5561 16.4434C4.36752 16.3891 4.19127 16.2979 4.03752 16.1749C3.88377 16.0519 3.75553 15.8994 3.66031 15.7261L3.6505 15.7087C3.38836 15.2535 3.02627 14.8639 2.59142 14.5695C2.15656 14.275 1.6604 14.0836 1.14047 14.0099C0.593653 13.9324 0.0875332 14.3128 0.0100232 14.8597C-0.0674868 15.4065 0.312963 15.9126 0.859783 15.9901C1.07816 16.0211 1.28688 16.1015 1.47012 16.2256C1.65121 16.3482 1.80277 16.5103 1.9134 16.7C2.1346 17.0992 2.43165 17.4514 2.78801 17.7365C3.14753 18.0242 3.56032 18.2379 4.00272 18.3653C4.43348 18.4893 4.88392 18.5291 5.32949 18.4825C5.33039 18.7224 5.33103 18.9065 5.33103 19C5.33103 19.5523 5.75521 20 6.27847 20H11.7558C12.279 20 12.7032 19.5523 12.7032 19V15.2095C12.729 14.7802 12.685 14.3499 12.5738 13.9373C12.5585 13.8805 12.5419 13.824 12.5241 13.7679C12.5838 13.753 12.6435 13.7373 12.7032 13.7208C13.5277 13.4937 14.3513 13.1224 15.0588 12.4983C16.2791 11.4217 16.9982 9.7379 16.9996 7.27493C17.0147 6.12791 16.6925 5.01089 16.0868 4.07439C16.0475 4.01358 16.007 3.95354 15.9652 3.89429C15.976 3.84399 15.9861 3.79358 15.9955 3.74306C16.1893 2.69934 16.0795 1.61142 15.6713 0.62664Z" fill="#D5CEA3"/>
</svg>
